<svg xmlns="http://www.w3.org/2000/svg" viewBox="0 0 24 24" fill="white"><path d="M21.9,6c-2.2,0-4.4,0.5-6.4,1.4c-3.1,1.4-5.7,3.6-7.6,6.3c-0.2,0.3-0.5,0.6-0.7,0.9c-0.5,0.7-1,1.5-1.4,2.2l-0.1,0.2c-0.2,0.4-0.5,0.8-0.7,1.2C4.1,19.3,3.1,20,2.1,20h0c-0.3,0-0.6-0.2-0.8-0.4c-0.2-0.3-0.2-0.6-0.1-0.9c0.2-0.8,0.8-1.7,1.6-2.4c1.6-1.5,3.9-2.2,6.1-2c0.2,0,0.5,0,0.7,0.1c-2.3-0.8-4.8-0.9-7-0.1C1.9,14.5,1.2,15.3,1.1,16c0,0.2,0,0.4,0,0.5c0,1.2,1,2.5,2.7,2.5c1.1,0,2.2-0.4,3.2-1.2c2.2-1.7,4.3-4.6,6.2-7.5C15,7.7,18.3,6,21.9,6z"/></svg>
