<svg xmlns="http://www.w3.org/2000/svg" viewBox="0 0 24 24" fill="white"><path d="M21 10.5c0 4.6-3.1 8.5-7.4 9.8-.3.1-.6-.1-.6-.4v-1.1c0-.2.1-.4.3-.4 3.4-1.1 5.8-4.2 5.8-7.9s-2.4-6.8-5.8-7.9c-.2-.1-.3-.2-.3-.4V1.1c0-.3.3-.5.6-.4C17.9 2 21 5.9 21 10.5zM17.5 10.5c0 3.1-2.2 5.7-5.2 6.5-.3.1-.4-.1-.4-.3v-1.2c0-.2.1-.3.3-.4 2.1-.6 3.6-2.5 3.6-4.7s-1.5-4.1-3.6-4.7c-.2-.1-.3-.2-.3-.4V4.2c0-.3.2-.4.4-.3 3 0.8 5.2 3.4 5.2 6.6zm-3.5 0c0 1.5-1.2 2.8-2.7 3.2-.3.1-.4-.1-.4-.3v-1c0-.2.1-.3.3-.3 1 0 1.8-.8 1.8-1.8 0-1-.8-1.8-1.8-1.8-.2 0-.3-.1-.3-.3V7.1c0-.2.1-.4.4-.3 1.5 0.3 2.7 1.6 2.7 3.7zM7.5 7v7c0 .6-.4 1-1 1S5.5 14.6 5.5 14V7c0-.6.4-1 1-1S7.5 6.4 7.5 7z"/></svg>
